<svg width="193" height="119" viewBox="0 0 193 119" fill="none" xmlns="http://www.w3.org/2000/svg">
<path d="M2.688 98.144C2.688 97.696 2.704 97.312 2.736 96.992C2.768 96.64 2.832 96.336 2.928 96.08C3.792 96.016 4.464 95.872 4.944 95.648C5.424 95.392 5.76 94.976 5.952 94.4C6.144 93.792 6.24 92.96 6.24 91.904V71.648C6.24 70.528 6.144 69.664 5.952 69.056C5.76 68.448 5.424 68.032 4.944 67.808C4.464 67.584 3.792 67.472 2.928 67.472C2.832 67.216 2.768 66.912 2.736 66.56C2.704 66.208 2.688 65.824 2.688 65.408C3.136 65.44 3.632 65.472 4.176 65.504C4.72 65.504 5.424 65.52 6.288 65.552C7.184 65.552 8.336 65.552 9.744 65.552C11.184 65.552 13.008 65.552 15.216 65.552H20.4C22.608 65.552 24.416 65.552 25.824 65.552C27.232 65.552 28.368 65.552 29.232 65.552C30.096 65.52 30.8 65.504 31.344 65.504C31.92 65.472 32.448 65.44 32.928 65.408C32.928 65.824 32.912 66.208 32.88 66.56C32.848 66.912 32.784 67.216 32.688 67.472C31.856 67.472 31.184 67.584 30.672 67.808C30.192 68.032 29.856 68.448 29.664 69.056C29.472 69.664 29.376 70.528 29.376 71.648V91.904C29.376 92.96 29.472 93.792 29.664 94.4C29.856 94.976 30.192 95.392 30.672 95.648C31.184 95.872 31.856 96.016 32.688 96.08C32.784 96.336 32.848 96.64 32.88 96.992C32.912 97.312 32.928 97.696 32.928 98.144C31.968 98.08 30.992 98.032 30 98C29.008 98 28.048 98 27.12 98C26.192 98 25.2 98 24.144 98C23.088 98.032 22.144 98.08 21.312 98.144C21.312 97.696 21.328 97.312 21.36 96.992C21.392 96.64 21.456 96.336 21.552 96.08C22.416 96.016 23.088 95.872 23.568 95.648C24.048 95.392 24.384 94.976 24.576 94.4C24.768 93.792 24.864 92.96 24.864 91.904V71.792C24.864 70.928 24.784 70.176 24.624 69.536C24.464 68.864 24.144 68.384 23.664 68.096C23.248 67.84 22.608 67.696 21.744 67.664C20.912 67.6 19.6 67.568 17.808 67.568C16.016 67.568 14.688 67.6 13.824 67.664C12.992 67.696 12.368 67.84 11.952 68.096C11.472 68.384 11.152 68.864 10.992 69.536C10.832 70.176 10.752 70.928 10.752 71.792V91.904C10.752 92.96 10.848 93.792 11.04 94.4C11.232 94.976 11.568 95.392 12.048 95.648C12.56 95.872 13.232 96.016 14.064 96.08C14.16 96.336 14.224 96.64 14.256 96.992C14.288 97.312 14.304 97.696 14.304 98.144C13.344 98.08 12.368 98.032 11.376 98C10.384 98 9.424 98 8.496 98C7.568 98 6.576 98 5.52 98C4.464 98.032 3.52 98.08 2.688 98.144ZM52.0871 98.144C52.0871 97.696 52.1031 97.312 52.1351 96.992C52.1671 96.64 52.2311 96.336 52.3271 96.08C53.3511 96.016 54.1671 95.856 54.7751 95.6C55.3831 95.312 55.8311 94.816 56.1191 94.112C56.4071 93.376 56.5511 92.32 56.5511 90.944V71.648C56.5511 70.56 56.4551 69.728 56.2631 69.152C56.0711 68.576 55.7351 68.16 55.2551 67.904C54.8071 67.648 54.1671 67.504 53.3351 67.472C53.2391 67.216 53.1751 66.912 53.1431 66.56C53.1111 66.208 53.0951 65.824 53.0951 65.408C53.6711 65.44 54.2631 65.472 54.8711 65.504C55.5111 65.504 56.1511 65.52 56.7911 65.552C57.4631 65.552 58.1351 65.552 58.8071 65.552C59.5111 65.552 60.1831 65.552 60.8231 65.552C61.4631 65.52 62.0871 65.504 62.6951 65.504C63.3351 65.472 63.9591 65.44 64.5671 65.408C64.5671 65.824 64.5511 66.208 64.5191 66.56C64.4871 66.912 64.4231 67.216 64.3271 67.472C63.4951 67.504 62.8391 67.648 62.3591 67.904C61.9111 68.16 61.5911 68.576 61.3991 69.152C61.2071 69.728 61.1111 70.56 61.1111 71.648V91.904C61.1111 92.96 61.2071 93.792 61.3991 94.4C61.5911 94.976 61.9111 95.392 62.3591 95.648C62.8391 95.872 63.4951 96.016 64.3271 96.08C64.4231 96.336 64.4871 96.64 64.5191 96.992C64.5511 97.312 64.5671 97.696 64.5671 98.144C63.9591 98.08 63.0151 98.032 61.7351 98C60.4551 98 59.2551 98 58.1351 98C57.3991 98 56.6471 98 55.8791 98C55.1431 98.032 54.4551 98.048 53.8151 98.048C53.1751 98.08 52.5991 98.112 52.0871 98.144ZM49.2071 84.8C46.8711 84.8 45.0471 84.496 43.7351 83.888C42.4231 83.248 41.4471 82.352 40.8071 81.2C40.1991 80.048 39.7991 78.672 39.6071 77.072C39.4151 75.44 39.2711 73.632 39.1751 71.648C39.1431 70.656 39.0631 69.872 38.9351 69.296C38.8071 68.72 38.5191 68.288 38.0711 68C37.6551 67.712 36.9511 67.536 35.9591 67.472C35.8631 67.216 35.7991 66.912 35.7671 66.56C35.7351 66.208 35.7191 65.824 35.7191 65.408C36.2951 65.44 36.9031 65.472 37.5431 65.504C38.1831 65.504 38.8231 65.52 39.4631 65.552C40.1351 65.552 40.8071 65.552 41.4791 65.552C42.1511 65.552 42.8071 65.552 43.4471 65.552C44.0871 65.52 44.7111 65.504 45.3191 65.504C45.9591 65.472 46.5831 65.44 47.1911 65.408C47.1911 65.824 47.1751 66.208 47.1431 66.56C47.1111 66.912 47.0471 67.216 46.9511 67.472C46.0551 67.536 45.3671 67.696 44.8871 67.952C44.4391 68.208 44.1351 68.672 43.9751 69.344C43.8151 69.984 43.7351 70.944 43.7351 72.224C43.7351 74.72 43.9431 76.704 44.3591 78.176C44.8071 79.648 45.5431 80.704 46.5671 81.344C47.5911 81.952 48.9831 82.256 50.7431 82.256C51.4151 82.256 52.3271 82.224 53.4791 82.16C54.6631 82.064 55.7831 81.936 56.8391 81.776V83.84C55.7831 84.128 54.5831 84.368 53.2391 84.56C51.8951 84.72 50.5511 84.8 49.2071 84.8ZM84.4496 65.264L95.8736 91.472C96.4176 92.656 96.8656 93.568 97.2176 94.208C97.5696 94.848 97.9216 95.296 98.2736 95.552C98.6576 95.808 99.0896 95.984 99.5696 96.08C99.6976 96.496 99.7776 96.848 99.8096 97.136C99.8416 97.424 99.8576 97.76 99.8576 98.144C99.5376 98.112 99.0416 98.08 98.3696 98.048C97.6976 98.048 96.9936 98.032 96.2576 98C95.5216 98 94.8976 98 94.3856 98C94.0016 98 93.5536 98 93.0416 98C92.5296 98.032 92.0016 98.048 91.4576 98.048C90.9136 98.08 90.4176 98.096 89.9696 98.096C89.5536 98.128 89.2176 98.144 88.9616 98.144C88.9616 97.76 88.9776 97.392 89.0096 97.04C89.0736 96.688 89.1696 96.368 89.2976 96.08C90.6096 95.92 91.3776 95.632 91.6016 95.216C91.8576 94.768 91.6656 93.808 91.0256 92.336L84.3536 76.736C83.9376 75.744 83.5696 74.864 83.2496 74.096C82.9296 73.328 82.5456 72.352 82.0976 71.168H82.3376C81.9536 72.384 81.6016 73.424 81.2816 74.288C80.9936 75.12 80.7056 75.92 80.4176 76.688L74.9456 90.944C74.2416 92.832 74.0176 94.144 74.2736 94.88C74.5616 95.584 75.3616 95.984 76.6736 96.08C76.8016 96.368 76.8816 96.688 76.9136 97.04C76.9776 97.392 77.0096 97.76 77.0096 98.144C76.6576 98.112 76.2256 98.08 75.7136 98.048C75.2016 98.048 74.6576 98.032 74.0816 98C73.5376 98 72.9936 98 72.4496 98C71.6496 98 70.8976 98.016 70.1936 98.048C69.4896 98.08 68.9136 98.112 68.4656 98.144C68.4656 97.824 68.4816 97.488 68.5136 97.136C68.5776 96.752 68.6736 96.416 68.8016 96.128C69.3776 96 69.8576 95.776 70.2416 95.456C70.6256 95.136 70.9936 94.624 71.3456 93.92C71.7296 93.184 72.1616 92.192 72.6416 90.944L82.5776 65.456C82.8976 65.392 83.1856 65.344 83.4416 65.312C83.7296 65.28 84.0656 65.264 84.4496 65.264ZM88.8176 85.28L89.2496 87.44C87.1056 87.44 84.8016 87.456 82.3376 87.488C79.9056 87.52 77.6976 87.568 75.7136 87.632L76.4816 85.28H88.8176ZM105.815 98.432C104.983 98.432 104.263 98.304 103.655 98.048C103.047 97.792 102.599 97.552 102.311 97.328C102.183 96.72 102.119 96 102.119 95.168C102.151 94.336 102.231 93.568 102.359 92.864C102.967 92.96 103.543 93.04 104.087 93.104C104.631 93.136 105.063 93.152 105.383 93.152C106.215 93.152 106.983 92.912 107.687 92.432C108.391 91.92 109.015 90.896 109.559 89.36C110.263 87.472 110.807 84.96 111.191 81.824C111.575 78.688 111.847 75.328 112.007 71.744C112.071 70.688 112.055 69.872 111.959 69.296C111.863 68.72 111.559 68.304 111.047 68.048C110.567 67.76 109.719 67.568 108.503 67.472C108.407 67.216 108.343 66.912 108.311 66.56C108.279 66.208 108.263 65.824 108.263 65.408C109.287 65.44 110.743 65.472 112.631 65.504C114.519 65.536 117.063 65.552 120.263 65.552C122.375 65.552 124.087 65.552 125.399 65.552C126.711 65.52 127.783 65.504 128.615 65.504C129.447 65.472 130.183 65.44 130.823 65.408C130.823 65.824 130.807 66.208 130.775 66.56C130.743 66.912 130.679 67.216 130.583 67.472C129.751 67.504 129.079 67.648 128.567 67.904C128.087 68.16 127.751 68.576 127.559 69.152C127.367 69.728 127.271 70.56 127.271 71.648V91.904C127.271 92.96 127.367 93.792 127.559 94.4C127.751 94.976 128.087 95.392 128.567 95.648C129.079 95.872 129.751 96.016 130.583 96.08C130.679 96.336 130.743 96.64 130.775 96.992C130.807 97.312 130.823 97.696 130.823 98.144C129.863 98.08 128.887 98.032 127.895 98C126.903 98 125.943 98 125.015 98C124.087 98 123.095 98 122.039 98C120.983 98.032 120.039 98.08 119.207 98.144C119.207 97.696 119.223 97.312 119.255 96.992C119.287 96.64 119.351 96.336 119.447 96.08C120.311 96.016 120.983 95.872 121.463 95.648C121.943 95.392 122.279 94.976 122.471 94.4C122.663 93.792 122.759 92.96 122.759 91.904V71.648C122.759 70.464 122.679 69.6 122.519 69.056C122.359 68.512 122.055 68.128 121.607 67.904C121.095 67.648 120.487 67.488 119.783 67.424C119.079 67.36 118.599 67.328 118.343 67.328C117.927 67.328 117.447 67.376 116.903 67.472C116.359 67.536 115.879 67.68 115.463 67.904C115.111 68.096 114.855 68.352 114.695 68.672C114.567 68.96 114.471 69.344 114.407 69.824C114.375 70.304 114.327 70.912 114.263 71.648C113.943 76.832 113.559 81.152 113.111 84.608C112.695 88.032 112.167 90.768 111.527 92.816C110.919 94.832 110.135 96.272 109.175 97.136C108.247 98 107.127 98.432 105.815 98.432ZM150.252 98.144C150.252 97.792 150.268 97.44 150.3 97.088C150.332 96.704 150.396 96.368 150.492 96.08C151.324 96.016 151.964 95.872 152.412 95.648C152.86 95.392 153.18 94.976 153.372 94.4C153.564 93.792 153.66 92.96 153.66 91.904V67.424L153.9 67.952C153.196 67.792 152.492 67.68 151.788 67.616C151.116 67.552 150.46 67.52 149.82 67.52C147.164 67.52 145.308 68.112 144.252 69.296C143.196 70.48 142.668 71.968 142.668 73.76C142.668 75.584 143.068 77.04 143.868 78.128C144.668 79.216 145.74 80.016 147.084 80.528C148.428 81.008 149.916 81.248 151.548 81.248C151.9 81.248 152.236 81.232 152.556 81.2C152.908 81.168 153.276 81.12 153.66 81.056V82.736H148.716C146.284 82.544 144.268 82.08 142.668 81.344C141.1 80.576 139.916 79.584 139.116 78.368C138.348 77.12 137.964 75.712 137.964 74.144C137.964 72.608 138.348 71.184 139.116 69.872C139.884 68.528 141.148 67.456 142.908 66.656C144.668 65.856 147.02 65.456 149.964 65.456C150.668 65.456 151.58 65.472 152.7 65.504C153.82 65.536 155.02 65.552 156.3 65.552C156.908 65.552 157.564 65.552 158.268 65.552C159.004 65.52 159.676 65.504 160.284 65.504C160.924 65.472 161.404 65.456 161.724 65.456C161.724 65.84 161.708 66.192 161.676 66.512C161.644 66.832 161.58 67.152 161.484 67.472C160.62 67.472 159.948 67.6 159.468 67.856C158.988 68.112 158.652 68.544 158.46 69.152C158.268 69.728 158.172 70.56 158.172 71.648V91.904C158.172 92.96 158.268 93.792 158.46 94.4C158.652 94.976 158.988 95.392 159.468 95.648C159.948 95.872 160.62 96.016 161.484 96.08C161.58 96.4 161.644 96.736 161.676 97.088C161.708 97.44 161.724 97.792 161.724 98.144C161.02 98.08 160.092 98.032 158.94 98C157.788 98 156.796 98 155.964 98C155.58 98 155.068 98 154.428 98C153.788 98 153.1 98 152.364 98C151.66 98.032 150.956 98.08 150.252 98.144ZM141.036 98.432C140.268 98.304 139.596 98.208 139.02 98.144C138.444 98.08 137.836 98.032 137.196 98C136.556 98 135.756 98 134.796 98C134.732 97.776 134.684 97.552 134.652 97.328C134.62 97.104 134.588 96.88 134.556 96.656C134.556 96.432 134.556 96.24 134.556 96.08C135.74 95.952 136.652 95.6 137.292 95.024C137.932 94.448 138.412 93.728 138.732 92.864C139.052 92 139.324 91.088 139.548 90.128C139.804 89.168 140.092 88.224 140.412 87.296C140.732 86.368 141.196 85.52 141.804 84.752C142.444 83.952 143.308 83.328 144.396 82.88C145.516 82.4 146.988 82.16 148.812 82.16H153.66V83.312C151.612 83.312 149.964 83.552 148.716 84.032C147.5 84.512 146.556 85.152 145.884 85.952C145.244 86.752 144.764 87.664 144.444 88.688C144.156 89.712 143.916 90.752 143.724 91.808C143.5 93.216 143.212 94.48 142.86 95.6C142.508 96.72 141.9 97.664 141.036 98.432ZM167.079 98.144C167.079 97.696 167.095 97.312 167.127 96.992C167.159 96.64 167.223 96.336 167.319 96.08C168.183 96.016 168.855 95.872 169.335 95.648C169.815 95.392 170.151 94.976 170.343 94.4C170.535 93.792 170.631 92.96 170.631 91.904V71.648C170.631 70.56 170.535 69.728 170.343 69.152C170.151 68.576 169.815 68.16 169.335 67.904C168.855 67.648 168.183 67.504 167.319 67.472C167.223 67.216 167.159 66.912 167.127 66.56C167.095 66.208 167.079 65.824 167.079 65.408C168.327 65.472 169.527 65.52 170.679 65.552C171.863 65.552 172.839 65.552 173.607 65.552C174.055 65.552 174.679 65.552 175.479 65.552C176.311 65.52 177.127 65.504 177.927 65.504C178.727 65.472 179.319 65.456 179.703 65.456C182.359 65.456 184.487 65.888 186.087 66.752C187.687 67.616 188.839 68.752 189.543 70.16C190.247 71.568 190.599 73.104 190.599 74.768C190.599 76.592 190.183 78.352 189.351 80.048C188.551 81.744 187.351 83.136 185.751 84.224C184.151 85.312 182.135 85.856 179.703 85.856C178.359 85.856 177.239 85.68 176.343 85.328C176.279 84.976 176.247 84.64 176.247 84.32C176.247 84 176.295 83.68 176.391 83.36C176.807 83.456 177.223 83.536 177.639 83.6C178.055 83.632 178.487 83.648 178.935 83.648C180.119 83.648 181.223 83.44 182.247 83.024C183.271 82.608 184.103 81.872 184.743 80.816C185.383 79.728 185.703 78.176 185.703 76.16C185.703 73.6 185.063 71.536 183.783 69.968C182.535 68.368 180.471 67.568 177.591 67.568C177.239 67.568 176.823 67.6 176.343 67.664C175.895 67.696 175.255 67.808 174.423 68L175.143 67.28V90.944C175.143 92.32 175.287 93.376 175.575 94.112C175.863 94.816 176.327 95.312 176.967 95.6C177.607 95.856 178.423 96.016 179.415 96.08C179.511 96.336 179.575 96.64 179.607 96.992C179.639 97.312 179.655 97.696 179.655 98.144C179.175 98.112 178.599 98.08 177.927 98.048C177.287 98.048 176.599 98.032 175.863 98C175.127 98 174.375 98 173.607 98C172.871 98 172.071 98 171.207 98C170.343 98.032 169.543 98.048 168.807 98.048C168.071 98.08 167.495 98.112 167.079 98.144Z" fill="black"/>
<path d="M81.4497 38.3193C81.4832 38.4398 81.5168 38.5602 81.5503 38.6806C81.9598 38.61 82.3479 38.5437 82.7548 38.4714C84.3517 38.1906 85.9344 37.8967 87.5186 37.6279C93.0572 36.5906 98.7225 37.212 104.261 38.4243C104.666 38.51 105.049 38.5922 105.453 38.6816C105.484 38.5605 105.516 38.4394 105.547 38.3184C105.147 38.2017 104.77 38.0932 104.37 37.9818C98.9208 36.4127 93.0413 35.5725 87.3515 36.642C85.7287 36.9173 84.1436 37.3492 82.6026 37.891C82.2094 38.0286 81.8387 38.1679 81.4497 38.3193Z" fill="black"/>
<path d="M93.5 11C101.266 17.9979 106 27.2965 106 37.501C106 47.7053 101.266 57.0031 93.5 64.001C85.7341 57.0031 81 47.7053 81 37.501C81 27.2965 85.7339 17.9979 93.5 11Z" fill="#FAC157"/>
<path d="M93.521 16.7791C89.3676 16.7347 86.0401 12.9576 86.0894 8.34266C86.0923 8.06993 86.1084 7.8003 86.1342 7.5345C88.0996 5.98668 90.7444 5.04953 93.6463 5.0806C96.5483 5.11177 99.1724 6.10503 101.104 7.69476C101.124 7.96102 101.133 8.23097 101.131 8.50368C101.081 13.1184 97.6742 16.8233 93.521 16.7791Z" fill="#FAC157"/>
<path d="M76 1C77.6426 1.61831 79.2961 2.18564 80.9168 2.83496C83.5503 3.87986 86.2184 5.29747 87.5889 7.78884C88.9716 10.2416 89.1931 13.1722 89.1638 15.9985L89.1766 15.9079C86.3548 25.2031 82.9842 36.0756 73.212 39.4542C71.5064 40.1277 69.7155 40.6256 67.8972 41.0166L68.0089 41.0058C64.6499 40.9259 61.1048 40.6708 58.3774 38.8256C55.6334 36.9662 54.3819 33.6035 53.3593 30.3915L53.3702 30.5623C53.9916 23.3052 60.8458 19.1025 67.1403 16.4944C68.7428 15.7967 70.3695 15.1398 72 14.5C70.3463 15.0773 68.6963 15.6753 67.0674 16.319C60.7332 18.6751 53.4331 22.8625 52.6298 30.4377L52.6407 30.6085C53.6192 33.8632 54.8252 37.4403 57.8591 39.5712C60.8777 41.6459 64.5721 41.8896 67.9911 41.9942L68.1028 41.9834C69.9622 41.5915 71.8066 41.0841 73.5794 40.3843C83.8763 36.7841 87.2197 25.3941 89.8234 16.0921L89.8362 16.0015C89.8018 13.1238 89.5106 10.1011 87.9834 7.556C86.456 4.96668 83.6536 3.61442 80.9846 2.6575C79.3356 2.06167 77.6651 1.55557 76 1Z" fill="black"/>
<path d="M110.835 0.56414C109.208 1.22255 107.569 1.83027 105.964 2.51916C103.357 3.62833 100.725 5.11098 99.4159 7.63522C98.0937 10.1211 97.9442 13.0563 98.0429 15.881L98.0278 15.7907C101.077 25.0139 104.713 35.8004 114.565 38.9384C116.287 39.5698 118.089 40.0237 119.917 40.3699L119.805 40.3619C123.161 40.1996 126.698 39.8577 129.38 37.9461C132.077 36.02 133.246 32.6276 134.189 29.3914L134.183 29.5624C133.383 22.3229 126.428 18.2895 120.072 15.8366C118.453 15.1784 116.81 14.5616 115.165 13.962C116.832 14.4985 118.496 15.0559 120.14 15.6594C126.53 17.8595 133.931 21.8666 134.92 29.4198L134.913 29.5908C134.015 32.8685 132.897 36.4741 129.916 38.6787C126.949 40.8269 123.262 41.1611 119.847 41.3495L119.735 41.3416C117.866 40.9953 116.01 40.5333 114.22 39.8772C103.838 36.5306 100.217 25.226 97.3858 15.9908L97.3707 15.9005C97.3345 13.0228 97.5515 9.99395 99.0158 7.41212C100.479 4.78612 103.248 3.36551 105.892 2.34341C107.526 1.70731 109.184 1.16039 110.835 0.56414Z" fill="black"/>
<path d="M83.5 23C82.8816 23.2858 82.2772 23.5763 81.6835 23.8759C76.3061 26.3414 71.0138 31.1909 70.712 37.6048C70.6141 38.3918 70.5504 39.1799 70.5076 39.9706L70.5434 40.1866C72.4287 44.8197 75.6568 50.8219 81.4811 50.5283C82.1557 50.5522 82.8285 50.5357 83.5 50.5C82.8283 50.469 82.1587 50.4221 81.4963 50.3389C75.8413 50.0765 73.3562 44.4706 71.4566 39.8134L71.4924 40.0294C71.5431 39.2552 71.6098 38.4883 71.7043 37.7283C72.0214 31.6238 76.5998 27.0702 81.7767 24.0415C82.339 23.6907 82.9125 23.3449 83.5 23Z" fill="black"/>
<path d="M103.5 23C104.118 23.2858 104.723 23.5763 105.316 23.8759C110.694 26.3413 115.986 31.1908 116.288 37.6046C116.386 38.3917 116.45 39.1797 116.492 39.9705L116.457 40.1864C114.571 44.8196 111.343 50.8216 105.519 50.5281C104.844 50.552 104.171 50.5354 103.5 50.4998C104.172 50.4688 104.841 50.4218 105.504 50.3387C111.159 50.0763 113.644 44.4704 115.543 39.8133L115.508 40.0292C115.457 39.2551 115.39 38.4882 115.296 37.7282C114.979 31.6237 110.4 27.0701 105.223 24.0415C104.661 23.6907 104.087 23.3449 103.5 23Z" fill="black"/>
<path d="M83.9299 24.3261C83.9766 24.442 84.0234 24.558 84.0701 24.6739C84.3853 24.5694 84.6863 24.4725 85.0011 24.3727C87.7833 23.4882 90.6203 22.8232 93.4765 22.8956C96.333 22.9476 99.1741 23.6325 101.994 24.4103C102.313 24.4992 102.616 24.5842 102.937 24.6766C102.979 24.5589 103.021 24.4412 103.063 24.3234C102.755 24.1912 102.463 24.0682 102.153 23.9429C99.4257 22.8412 96.526 21.9531 93.4954 21.8958C90.4614 21.8188 87.5042 22.7038 84.8255 23.9112C84.5208 24.0473 84.2317 24.1821 83.9299 24.3261Z" fill="black"/>
<path d="M81.9468 32.3202C81.9823 32.4401 82.0177 32.5599 82.0532 32.6798C82.4409 32.5868 82.8096 32.5011 83.1967 32.4126C86.6158 31.631 90.0696 31.0528 93.5234 31.1716C96.9784 31.271 100.403 32.0149 103.805 32.8826C104.191 32.9817 104.556 33.076 104.943 33.1785C104.981 33.0595 105.019 32.9405 105.057 32.8215C104.682 32.6789 104.328 32.5463 103.951 32.4107C100.633 31.2164 97.1507 30.2766 93.5538 30.172C89.9569 30.0485 86.4085 30.8253 83.0641 31.937C82.6843 32.0624 82.3244 32.1867 81.9468 32.3202Z" fill="black"/>
<path d="M105.958 40.1829C105.986 40.061 106.014 39.9391 106.042 39.8172C105.625 39.7013 105.232 39.5932 104.814 39.483C101.137 38.5123 97.3562 37.7534 93.4976 37.7062C89.6403 37.6421 85.8162 38.3591 82.1696 39.4447C81.756 39.5667 81.3635 39.6882 80.952 39.8188C80.984 39.9396 81.016 40.0604 81.048 40.1813C81.4685 40.0914 81.8687 40.0089 82.2886 39.9239C85.9996 39.1709 89.7386 38.6443 93.4846 38.7061C97.2319 38.7512 100.97 39.3261 104.709 39.9654C105.133 40.0387 105.534 40.1078 105.958 40.1829Z" fill="black"/>
<path d="M82.4384 46.8229C82.4795 46.941 82.5205 47.059 82.5616 47.1771C82.9292 47.0713 83.2776 46.9743 83.6452 46.8736C86.8867 45.9857 90.176 45.3311 93.4826 45.3906C96.7898 45.4307 100.078 46.1223 103.351 46.9103C103.722 47.0006 104.073 47.0861 104.445 47.1792C104.482 47.0597 104.518 46.9403 104.555 46.8209C104.194 46.6876 103.854 46.5637 103.491 46.4368C100.3 45.322 96.9546 44.4341 93.4962 44.3907C90.0375 44.3283 86.6466 45.1887 83.4916 46.4044C83.1325 46.5417 82.7944 46.6771 82.4384 46.8229Z" fill="black"/>
<path d="M85 53C85.2906 52.9281 85.5645 52.8631 85.8543 52.7938C88.4085 52.1871 90.9471 51.702 93.4879 51.7394C96.029 51.7608 98.571 52.271 101.141 52.8156C101.432 52.8784 101.708 52.9363 102 53C101.729 52.8731 101.473 52.755 101.199 52.6348C98.7971 51.5775 96.208 50.7641 93.4984 50.7394C90.7883 50.7 88.1665 51.4975 85.7918 52.6144C85.5205 52.7408 85.2674 52.8656 85 53Z" fill="black"/>
<path d="M89 59C89.1593 58.9871 89.3097 58.9761 89.4676 58.9623C90.864 58.8452 92.1954 58.696 93.5032 58.6941C94.8111 58.6848 96.1382 58.8268 97.533 58.9574C97.6907 58.9727 97.8408 58.9852 98 59C97.8607 58.9216 97.7286 58.8483 97.5867 58.7751C96.3455 58.1265 94.9518 57.6842 93.4992 57.6941C92.0466 57.6972 90.6626 58.1437 89.4155 58.7795C89.2731 58.8513 89.1402 58.9233 89 59Z" fill="black"/>
<path d="M93.4263 64.0487L91.8646 62.4507L95.0582 62.5223L93.4263 64.0487Z" fill="black"/>
</svg>
