<svg width="96" height="77" viewBox="0 0 96 77" fill="none" xmlns="http://www.w3.org/2000/svg">
<g clip-path="url(#clip0_2013_419)">
<path d="M58.9309 56.2251C59.6643 57.1425 60.0936 58.2519 60.0936 59.4473C60.0936 60.6427 59.6643 61.7521 58.9309 62.6696H58.9295C57.7283 64.1736 55.7083 65.1605 53.4187 65.1605C51.129 65.1605 49.109 64.1736 47.9079 62.6696C47.1745 61.7522 46.7451 60.6427 46.7451 59.4473C46.7451 58.2519 47.1745 57.1426 47.9079 56.2251C49.1091 54.7211 51.1291 53.7354 53.4187 53.7354C55.7084 53.7354 57.7284 54.7211 58.9295 56.2251H58.9309Z" fill="#4D4D4D"/>
<path d="M61.3848 69.1123C63.4419 69.1335 65.1014 70.5679 65.1014 72.3333C65.1014 73.2237 64.6803 74.0281 63.9992 74.611C63.3167 75.194 62.3755 75.5544 61.3366 75.5544H45.5016C43.4238 75.5544 41.7383 74.1129 41.7383 72.3334C41.7383 71.443 42.1593 70.6375 42.8405 70.0545C43.5106 69.481 44.4338 69.1229 45.4535 69.1123H61.3848Z" fill="#FFD86F"/>
<path d="M70.1081 65.8905C70.1081 66.7809 69.6871 67.5853 69.0059 68.1683C68.3234 68.7512 67.3822 69.1128 66.3433 69.1128H61.3842C61.3678 69.1116 61.3525 69.1116 61.3361 69.1116H45.5012C45.4847 69.1116 45.4695 69.1116 45.453 69.1128H40.4952C38.4161 69.1128 36.7305 67.6701 36.7305 65.8905C36.7305 65.0002 37.1515 64.1958 37.834 63.6128C38.5151 63.0298 39.4563 62.6694 40.4952 62.6694H47.9078C49.109 64.1734 51.129 65.1603 53.4186 65.1603C55.7083 65.1603 57.7283 64.1734 58.9294 62.6694H58.9308H66.3433C68.4225 62.6694 70.1081 64.1121 70.1081 65.8905Z" fill="#FFD86F"/>
<path d="M40.4957 56.2246H47.9082C47.1748 57.142 46.7455 58.2515 46.7455 59.4469C46.7455 60.6423 47.1748 61.7516 47.9082 62.6691H40.4957H37.2648C35.1856 62.6691 33.5 61.2253 33.5 59.4469C33.5 58.5565 33.9224 57.7521 34.6022 57.1691C35.2847 56.5862 36.2245 56.2246 37.2648 56.2246H40.4957Z" fill="#FFD86F"/>
<path d="M73.3384 59.4469C73.3384 60.3372 72.9173 61.1416 72.2362 61.7246C71.5551 62.3076 70.6139 62.6691 69.5736 62.6691H66.3442H58.9316C59.665 61.7517 60.0944 60.6423 60.0944 59.4469C60.0944 58.2515 59.665 57.1421 58.9316 56.2246H66.3442H69.5736C71.6541 56.2246 73.3384 57.6673 73.3384 59.4469Z" fill="#FFD86F"/>
<path d="M70.1081 53.0039C70.1081 53.8943 69.6871 54.6998 69.0059 55.2817C68.3234 55.8658 67.3822 56.225 66.3433 56.225H58.9308H58.9294C57.7282 54.721 55.7082 53.7353 53.4186 53.7353C51.1289 53.7353 49.1089 54.721 47.9078 56.225H40.4952C38.4161 56.225 36.7305 54.7846 36.7305 53.004C36.7305 52.1137 37.1515 51.3093 37.834 50.7275C38.5151 50.1434 39.4563 49.7842 40.4952 49.7842H66.3433C68.4225 49.784 70.1081 51.2244 70.1081 53.0039Z" fill="#FFD86F"/>
<path d="M61.3366 43.3394C63.4158 43.3394 65.1014 44.7821 65.1014 46.5604C65.1014 47.4508 64.6803 48.2564 63.9992 48.8393C63.3167 49.4223 62.3755 49.7827 61.3366 49.7827H45.5016C43.4238 49.7827 41.7383 48.34 41.7383 46.5604C41.7383 45.6713 42.1593 44.8657 42.8405 44.2827C43.5216 43.6997 44.4628 43.3394 45.5017 43.3394H61.3366V43.3394Z" fill="#FFD86F"/>
<path d="M46.2791 46.5609C46.2791 45.6717 46.7001 44.8662 47.3812 44.2832C48.0624 43.7002 49.0036 43.3398 50.0425 43.3398H45.5017C44.4628 43.3398 43.5216 43.7002 42.8405 44.2832C42.1593 44.8662 41.7383 45.6717 41.7383 46.5609C41.7383 48.3405 43.4239 49.7832 45.5016 49.7832H50.0424C47.9647 49.783 46.2791 48.3403 46.2791 46.5609Z" fill="#FFD86F"/>
<path d="M41.2712 53.0043C41.2712 52.1151 41.6923 51.3095 42.3734 50.7266C43.0546 50.1436 43.9958 49.7832 45.0347 49.7832H40.4939C39.455 49.7832 38.5138 50.1436 37.8327 50.7266C37.1515 51.3095 36.7305 52.1151 36.7305 53.0043C36.7305 54.7838 38.4161 56.2265 40.4938 56.2265H45.0346C42.9569 56.2264 41.2712 54.7837 41.2712 53.0043Z" fill="#FFD86F"/>
<path d="M38.0408 59.4477C38.0408 58.5585 38.4618 57.7529 39.143 57.1699C39.8241 56.5869 40.7653 56.2266 41.8042 56.2266H37.2634C36.2245 56.2266 35.2833 56.5869 34.6022 57.1699C33.9211 57.7529 33.5 58.5585 33.5 59.4477C33.5 61.2272 35.1856 62.6699 37.2633 62.6699H41.8041C39.7264 62.6697 38.0408 61.227 38.0408 59.4477Z" fill="#FFD86F"/>
<path d="M41.2712 65.8905C41.2712 65.0013 41.6923 64.1958 42.3734 63.6128C43.0546 63.0298 43.9958 62.6694 45.0347 62.6694H40.4939C39.455 62.6694 38.5138 63.0298 37.8327 63.6128C37.1515 64.1958 36.7305 65.0013 36.7305 65.8905C36.7305 67.6701 38.4161 69.1128 40.4938 69.1128H45.0346C42.9569 69.1126 41.2712 67.6699 41.2712 65.8905Z" fill="#FFD86F"/>
<path d="M46.2791 72.3339C46.2791 71.4447 46.7001 70.6391 47.3812 70.0561C48.0624 69.4732 49.0036 69.1128 50.0425 69.1128H45.5017C44.4628 69.1128 43.5216 69.4732 42.8405 70.0561C42.1593 70.6391 41.7383 71.4447 41.7383 72.3339C41.7383 74.1134 43.4239 75.5561 45.5016 75.5561H50.0424C47.9647 75.556 46.2791 74.1133 46.2791 72.3339Z" fill="#FFD86F"/>
<path d="M61.7585 47.3241C62.3285 47.3241 62.7905 46.9287 62.7905 46.4409C62.7905 45.9531 62.3285 45.5576 61.7585 45.5576C61.1886 45.5576 60.7266 45.9531 60.7266 46.4409C60.7266 46.9287 61.1886 47.3241 61.7585 47.3241Z" fill="white"/>
<path d="M66.5056 53.831C67.0756 53.831 67.5376 53.4355 67.5376 52.9477C67.5376 52.4599 67.0756 52.0645 66.5056 52.0645C65.9357 52.0645 65.4736 52.4599 65.4736 52.9477C65.4736 53.4355 65.9357 53.831 66.5056 53.831Z" fill="white"/>
<path d="M70.0144 60.3378C70.5843 60.3378 71.0464 59.9424 71.0464 59.4546C71.0464 58.9667 70.5843 58.5713 70.0144 58.5713C69.4445 58.5713 68.9824 58.9667 68.9824 59.4546C68.9824 59.9424 69.4445 60.3378 70.0144 60.3378Z" fill="white"/>
<path d="M66.5056 66.8447C67.0756 66.8447 67.5376 66.4492 67.5376 65.9614C67.5376 65.4736 67.0756 65.0781 66.5056 65.0781C65.9357 65.0781 65.4736 65.4736 65.4736 65.9614C65.4736 66.4492 65.9357 66.8447 66.5056 66.8447Z" fill="white"/>
<path d="M74.3835 76.4408C74.9535 76.4408 75.4155 76.0454 75.4155 75.5576C75.4155 75.0698 74.9535 74.6743 74.3835 74.6743C73.8136 74.6743 73.3516 75.0698 73.3516 75.5576C73.3516 76.0454 73.8136 76.4408 74.3835 76.4408Z" fill="#FFD86F"/>
<path d="M73.3513 45.1738C73.9213 45.1738 74.3833 44.7783 74.3833 44.2905C74.3833 43.8027 73.9213 43.4072 73.3513 43.4072C72.7814 43.4072 72.3193 43.8027 72.3193 44.2905C72.3193 44.7783 72.7814 45.1738 73.3513 45.1738Z" fill="#FFD86F"/>
<path d="M30.2165 48.707C30.7865 48.707 31.2485 48.3115 31.2485 47.8237C31.2485 47.3359 30.7865 46.9404 30.2165 46.9404C29.6466 46.9404 29.1846 47.3359 29.1846 47.8237C29.1846 48.3115 29.6466 48.707 30.2165 48.707Z" fill="#FFD86F"/>
<path d="M28.9783 62.8383C29.5482 62.8383 30.0102 62.4429 30.0102 61.955C30.0102 61.4672 29.5482 61.0718 28.9783 61.0718C28.4083 61.0718 27.9463 61.4672 27.9463 61.955C27.9463 62.4429 28.4083 62.8383 28.9783 62.8383Z" fill="#FFD86F"/>
<path d="M74.3699 59.4469C74.3699 57.3807 72.5767 55.6669 70.2525 55.3838C70.8287 54.6943 71.1406 53.8701 71.1406 53.0035C71.1406 50.7409 68.989 48.9 66.3444 48.9H65.2748C65.8149 48.2357 66.1328 47.4299 66.1328 46.5611C66.1328 44.2976 63.9814 42.4563 61.3369 42.4563H54.4517V39.6474C58.5443 39.9236 62.3328 40.0205 65.6223 40.0205C66.5047 40.0205 67.3518 40.0136 68.1592 40.0013C68.7292 39.9926 69.1828 39.5902 69.1728 39.1025C69.1628 38.6146 68.6893 38.2257 68.1227 38.2349C66.3496 38.2618 64.6282 38.2595 62.9565 38.2334L64.5315 36.5624C64.8894 36.1827 64.8198 35.6266 64.3762 35.3203C63.9321 35.0139 63.2829 35.0735 62.9249 35.4532L60.362 38.1727C58.3063 38.108 56.3357 38.0069 54.452 37.877V37.2244C54.452 36.7365 53.9901 36.3411 53.42 36.3411C52.8499 36.3411 52.388 36.7366 52.388 37.2244V37.7207C44.972 37.1082 39.0287 36.0657 34.7728 35.1163C34.2341 34.9962 33.7156 34.8756 33.2131 34.7554L38.0639 33.5217C38.6103 33.3828 38.9215 32.8911 38.7593 32.4234C38.5969 31.9559 38.0223 31.6896 37.4762 31.8283L29.6266 33.8246C25.4307 32.6445 23.2158 31.6806 23.1865 31.6676C22.6799 31.4443 22.0579 31.6143 21.7967 32.0478C21.5355 32.4813 21.734 33.014 22.2405 33.2377C22.409 33.3122 26.4543 35.0799 34.1663 36.8066C35.251 37.0496 36.3351 37.275 37.4161 37.4844L39.7879 40.301C39.9896 40.5406 40.3054 40.6679 40.6259 40.6679C40.8351 40.6679 41.046 40.6137 41.2285 40.5011C41.6908 40.2159 41.7955 39.6638 41.4623 39.268L40.4159 38.0255C44.5369 38.7178 48.5752 39.1865 52.3877 39.4943V42.456H45.5023C42.8578 42.456 40.7064 44.2974 40.7064 46.5608C40.7064 47.4296 41.0243 48.2356 41.5645 48.8997H40.4959C39.2146 48.8997 38.0103 49.3266 37.1055 50.101C36.199 50.8748 35.6998 51.9054 35.6998 53.0031C35.6998 53.8896 36.0308 54.7106 36.5911 55.3822C35.5672 55.5049 34.6202 55.9062 33.8723 56.5446C32.9672 57.3215 32.4687 58.352 32.4687 59.4465C32.4687 61.5135 34.263 63.2276 36.5883 63.51C36.0119 64.2002 35.6998 65.0243 35.6998 65.8899C35.6998 68.1534 37.8513 69.9948 40.4958 69.9948H41.5637C41.024 70.6588 40.7064 71.4645 40.7064 72.3329C40.7064 74.5964 42.8579 76.4377 45.5023 76.4377H61.3369C63.9815 76.4377 66.1328 74.5963 66.1328 72.3329C66.1328 71.4645 65.8153 70.6589 65.2756 69.9948H66.3445C67.6236 69.9948 68.8277 69.5681 69.7358 68.7926C70.6417 68.0173 71.1406 66.9864 71.1406 65.8898C71.1406 65.0033 70.8095 64.1824 70.2491 63.5106C71.274 63.3878 72.2206 62.9864 72.9652 62.3491C73.871 61.5743 74.3699 60.5434 74.3699 59.4469ZM45.5021 44.2227H61.3367C62.8432 44.2227 64.0686 45.2717 64.0686 46.5609C64.0686 47.8502 62.8431 48.8991 61.3367 48.8991H45.5021C43.9957 48.8991 42.7702 47.8502 42.7702 46.5609C42.7702 45.2715 43.9957 44.2227 45.5021 44.2227ZM38.5637 51.3514C39.0795 50.9097 39.7656 50.6666 40.4956 50.6666H66.3442C67.8508 50.6666 69.0764 51.7149 69.0764 53.0035C69.0764 53.6293 68.7925 54.2163 68.2761 54.6571C67.7603 55.0988 67.0742 55.342 66.3442 55.342H59.4444C58.0312 53.8258 55.8564 52.8516 53.4194 52.8516C50.9823 52.8516 48.8075 53.8258 47.3944 55.342H40.4954C38.9889 55.342 37.7633 54.293 37.7633 53.0035C37.7635 52.3785 38.0472 51.7921 38.5637 51.3514ZM53.4195 64.2764C50.3083 64.2764 47.7772 62.1099 47.7772 59.4473C47.7772 56.7847 50.3084 54.6182 53.4195 54.6182C56.5305 54.6182 59.0616 56.7847 59.0616 59.4473C59.0616 62.1099 56.5304 64.2764 53.4195 64.2764ZM34.5322 59.4469C34.5322 58.8234 34.8166 58.2359 35.3314 57.7942C35.8494 57.3521 36.5359 57.1086 37.2644 57.1086H46.2154C45.8919 57.8359 45.7133 58.6239 45.7133 59.4473C45.7133 60.2704 45.8919 61.0582 46.2153 61.7856H37.2646C35.7578 61.7854 34.5322 60.7364 34.5322 59.4469ZM64.0687 72.3334C64.0687 73.6228 62.8432 74.6717 61.3368 74.6717H45.5021C43.9957 74.6717 42.7702 73.6227 42.7702 72.3334C42.7702 71.0452 43.9936 69.9973 45.4983 69.9954H61.3408C62.8453 69.9971 64.0687 71.0452 64.0687 72.3334ZM68.2772 67.5431C67.7593 67.9852 67.0729 68.2287 66.3443 68.2287H40.4955C38.989 68.2287 37.7634 67.1797 37.7634 65.8904C37.7634 65.2656 38.0475 64.6784 38.5627 64.2376C39.0806 63.7954 39.767 63.5519 40.4956 63.5519H47.394C48.8071 65.0684 50.9821 66.0429 53.4195 66.0429C55.8568 66.0429 58.0317 65.0685 59.4449 63.5519H66.3444C67.851 63.5519 69.0766 64.6009 69.0766 65.8903C69.0765 66.515 68.7924 67.1022 68.2772 67.5431ZM71.5056 61.1006C70.9897 61.5422 70.3037 61.7854 69.5736 61.7854H60.6236C60.9468 61.0582 61.1256 60.2704 61.1256 59.4471C61.1256 58.6238 60.9468 57.8358 60.6235 57.1084H69.5738C71.0803 57.1084 72.3059 58.1574 72.3059 59.4468C72.3058 60.0716 72.0216 60.6589 71.5056 61.1006Z" fill="#333333"/>
</g>
<path d="M1.52573 15.7084L15.7002 8.49577L23.284 26.7815L21.0131 27.937L14.0729 11.2031L7.60953 14.492C7.06052 14.7714 6.76719 15.1086 6.72955 15.5036C6.6919 15.8986 6.79107 16.3806 7.02706 16.9496L13.2272 31.8989L11.0311 33.0163L4.89538 18.2222C4.57358 17.4463 4.17954 16.9578 3.71327 16.7565C3.25648 16.5296 2.71199 16.5769 2.0798 16.8986C1.89679 16.9917 1.73035 17.0033 1.58047 16.9334C1.4306 16.8635 1.32348 16.751 1.25912 16.5958C1.18527 16.4663 1.16965 16.3072 1.21226 16.1185C1.27151 15.9213 1.376 15.7846 1.52573 15.7084Z" fill="black"/>
<path d="M21.1864 15.0647L20.1899 10.2958C20.0944 9.83896 19.9671 9.4577 19.808 9.15199C19.6631 8.82336 19.4141 8.58882 19.0609 8.44837C18.8971 8.3941 18.692 8.36969 18.4455 8.37514C18.1989 8.38059 17.9943 8.40417 17.8316 8.4459C17.5965 8.50616 17.3933 8.49089 17.2219 8.40007C17.0648 8.28635 16.9671 8.13812 16.9289 7.9554C16.8946 7.79096 16.9292 7.63769 17.0329 7.49561C17.1546 7.34889 17.3059 7.25235 17.4867 7.20599L20.5245 6.42716C20.9765 6.31127 21.3306 6.36486 21.5868 6.58795C21.843 6.81103 22.0035 7.07789 22.0684 7.38851L23.5289 14.3775C23.716 15.2729 24.1657 15.9661 24.878 16.4573C25.6083 16.9438 26.4978 17.0527 27.5466 16.7838C28.2699 16.5983 28.9136 16.26 29.4777 15.7689C30.0418 15.2777 30.4927 14.7001 30.8302 14.0361C31.1715 13.3903 31.4 12.7061 31.5157 11.9834C31.6456 11.2378 31.64 10.5269 31.4987 9.85087L30.2616 3.93075L32.6212 3.32576L36.6705 22.7032L34.3108 23.3082L32.4093 14.2087C32.3487 14.6478 32.1776 15.1056 31.8962 15.582C31.6147 16.0584 31.2443 16.5192 30.7848 16.9642C30.3434 17.4047 29.8183 17.8088 29.2093 18.1767C28.6146 18.5217 27.9647 18.7846 27.2595 18.9654C26.5543 19.1462 25.8676 19.1875 25.1994 19.0893C24.5492 18.9864 23.9504 18.7646 23.4029 18.4237C22.8554 18.0828 22.3882 17.625 22.0014 17.0504C21.6147 16.4758 21.343 15.8139 21.1864 15.0647Z" fill="black"/>
<path d="M34.1304 22.5121L39.2815 6.33818C39.3301 6.16734 39.3706 6.02498 39.403 5.91109C39.4346 5.77855 39.4666 5.65533 39.499 5.54144C39.5314 5.42755 39.5544 5.31416 39.5682 5.20127C39.5998 5.06873 39.6216 4.92737 39.6338 4.77718C39.6264 4.60934 39.5924 4.47097 39.5316 4.36207C39.4699 4.23452 39.371 4.10897 39.2349 3.98542C39.0817 3.90016 38.892 3.83555 38.6659 3.79159C38.4398 3.74762 38.2242 3.73113 38.0191 3.74211C37.8141 3.7531 37.6435 3.69681 37.5073 3.57326C37.3703 3.43106 37.2978 3.26671 37.2896 3.08022C37.2645 2.93203 37.3147 2.79849 37.4403 2.67961C37.5837 2.54108 37.7393 2.46732 37.907 2.45834L42.828 2.19474L51.13 21.6015L48.2781 21.7542L45.5914 15.4212L38.4617 15.8031L36.3672 22.3923L34.1304 22.5121ZM41.5267 5.76929L39.0047 14.1197L44.9602 13.8007L41.5267 5.76929Z" fill="black"/>
<path d="M65.5164 3.83734L63.0541 23.4796L60.6188 23.1051L62.872 5.12975L59.3574 4.58921C58.5271 4.46152 57.9712 4.54593 57.6895 4.84244C57.4079 5.13894 57.2102 5.74097 57.0964 6.64854L55.773 17.2059C55.7173 17.6504 55.6235 18.1741 55.4915 18.7768C55.378 19.3823 55.1296 19.9388 54.7463 20.4462C54.3607 20.9721 53.8021 21.3771 53.0708 21.661C52.3394 21.945 51.3279 21.9877 50.0364 21.7891C48.8003 21.599 47.8446 21.1216 47.1695 20.357C46.4943 19.5924 46.1469 18.5384 46.1272 17.195L48.8947 17.6206C48.8691 17.8243 48.8482 18.0665 48.8318 18.3472C48.8362 18.6122 48.8879 18.875 48.9868 19.1356C49.0858 19.3963 49.254 19.6298 49.4914 19.8362C49.7288 20.0427 50.0781 20.1813 50.5394 20.2523C51.0929 20.3374 51.5311 20.2915 51.8542 20.1147C52.198 19.9221 52.4589 19.6413 52.6368 19.2722C52.8331 18.906 52.973 18.4649 53.0565 17.9492C53.1607 17.4177 53.25 16.8556 53.3243 16.2629L54.6372 5.78892C54.7324 5.02953 54.6729 4.45401 54.4588 4.06238C54.2469 3.65222 53.8181 3.39748 53.1724 3.29817C52.9325 3.26128 52.7561 3.16808 52.6432 3.01857C52.5511 2.85337 52.5155 2.68742 52.5364 2.52073C52.5365 2.36972 52.6012 2.22864 52.7305 2.09749C52.8782 1.96917 53.0351 1.91779 53.2011 1.94332L65.5164 3.83734Z" fill="black"/>
<path d="M74.4712 27.5488L72.1353 26.6805L76.836 11.165C77.0471 10.4683 77.1097 10.0046 77.0239 9.77387C76.9609 9.53183 76.7538 9.31573 76.4026 9.12555C76.3152 9.09304 76.1664 9.03775 75.9565 8.95971C75.7519 8.8638 75.5299 8.76138 75.2903 8.65247C75.0454 8.56141 74.8004 8.47036 74.5554 8.37931C74.3334 8.27689 74.1611 8.20292 74.0387 8.1574C72.8205 7.74437 71.7837 7.69686 70.9281 8.01489C70.0779 8.31505 69.458 9.10826 69.0683 10.3945C68.8518 11.1091 68.7782 11.7377 68.8474 12.2802C68.9167 12.8227 69.0742 13.2987 69.3201 13.7081C69.5834 14.124 69.8946 14.4782 70.2538 14.7707C70.6183 15.0454 70.9964 15.2754 71.388 15.4607C71.6571 15.6005 72.0192 15.7549 72.4741 15.924C72.929 16.0931 73.3139 16.2362 73.6289 16.3533C73.9963 16.4898 74.1919 16.7116 74.2157 17.0186C74.257 17.3321 74.2325 17.5416 74.1421 17.6472C74.0234 17.7819 73.9384 17.8696 73.8872 17.9102C73.836 17.9508 73.7989 17.9768 73.776 17.9881L65.1278 24.0758L62.2933 23.0222L70.7797 17.0831C70.7972 17.0896 70.7622 17.0766 70.6747 17.0441C70.5926 16.9937 70.5253 16.9587 70.4728 16.9392C69.6976 16.6709 69.0093 16.276 68.4081 15.7543C67.8123 15.2148 67.3338 14.6096 66.9725 13.9387C66.5937 13.2612 66.3558 12.5367 66.2586 11.7651C66.1614 10.9936 66.2406 10.218 66.4963 9.43847C66.8859 8.15221 67.4515 7.24934 68.1929 6.72986C68.9518 6.21689 69.7851 5.94027 70.6928 5.90001C71.6005 5.85976 72.5376 5.9795 73.5041 6.25924C74.4935 6.52763 75.4256 6.82441 76.3005 7.1496L80.211 8.6032L74.4712 27.5488Z" fill="black"/>
<path d="M84.3702 14.665L77.2352 29.2536L75.0744 27.957L82.1602 13.469C82.4965 12.7814 82.6265 12.198 82.5505 11.7185C82.4904 11.2487 82.1887 10.8074 81.6453 10.3945C81.4134 10.2337 81.282 10.0789 81.2512 9.93031C81.2286 9.76491 81.2542 9.60675 81.328 9.45583C81.3858 9.29531 81.4914 9.18517 81.6448 9.12542C81.8143 9.07527 81.979 9.09822 82.1391 9.19426L87.3971 12.3494C87.7653 12.5703 88.2093 12.8476 88.7293 13.1813C89.2654 13.5246 89.7293 13.8247 90.1213 14.0816C90.6651 14.4513 91.1638 14.9132 91.6174 15.4674C92.0792 16.0048 92.4358 16.6091 92.6871 17.2805C92.9303 17.9686 93.0403 18.6962 93.0171 19.4631C93.0022 20.2133 92.8059 20.9956 92.4283 21.8101C92.0674 22.548 91.5912 23.1406 90.9996 23.5882C90.4323 24.0286 89.7898 24.3263 89.0722 24.4813C88.3706 24.6459 87.6301 24.6571 86.8509 24.5148C86.0798 24.3558 85.3261 24.0554 84.5898 23.6136L82.381 22.2882C82.1409 22.1441 81.9937 21.9582 81.9395 21.7304C81.9094 21.4955 81.9436 21.2774 82.0421 21.0762C82.1163 20.8822 82.2504 20.7349 82.4444 20.6344C82.6545 20.5436 82.8876 20.575 83.1437 20.7287L85.2085 21.9677C85.5606 22.179 85.9495 22.3364 86.375 22.4399C86.8006 22.5434 87.239 22.5571 87.6903 22.4809C88.1175 22.4118 88.5337 22.217 88.939 21.8962C89.3685 21.5683 89.7473 21.069 90.0753 20.3983C90.6658 19.1909 90.7802 18.1317 90.4184 17.2205C90.0648 16.2926 89.3358 15.4972 88.2313 14.8345C88.1033 14.7577 87.9231 14.6604 87.6908 14.5427C87.4827 14.4179 87.2626 14.2966 87.0303 14.1789C86.8062 14.0444 86.594 13.928 86.3937 13.8295C86.1935 13.731 86.0613 13.6625 85.9973 13.6241C85.6205 13.4631 85.3351 13.4329 85.1411 13.5333C84.947 13.6338 84.6901 14.011 84.3702 14.665Z" fill="black"/>
<defs>
<clipPath id="clip0_2013_419">
<rect width="53.734" height="45.9907" fill="white" transform="translate(21.6816 31.0098)"/>
</clipPath>
</defs>
</svg>
